<?xml version="1.0" encoding="UTF-8"?>
<svg baseProfile="basic" version="1.1" viewBox="0 0 430 220" xml:space="preserve" xmlns="http://www.w3.org/2000/svg">
<defs>
	<filter id="b" filterUnits="userSpaceOnUse">
		<feColorMatrix values="1 0 0 0 0  0 1 0 0 0  0 0 1 0 0  0 0 0 1 0"/>
	</filter>
</defs>
<mask maskUnits="userSpaceOnUse">
	<rect x="-373" y="155.4" width="77.5" height="53.1" fill="#C4C4C4" filter="url(#b)"/>
</mask>

<rect x="28" y="32.6" width="162.9" height="59.3" fill="#fff"/>
<path d="m95.3 84.8c0.6-0.6 1.3-1.3 1.9-2 1.1-1.4 2.4-2.6 3.7-3.8 0.4-0.3 0.8-0.7 1.2-1 0.1-0.1 0.1-0.1 0.1-0.2s0.1-0.2 0.1-0.2c-0.3 0.1-0.5 0.3-0.7 0.4-0.2 0.2-0.4 0.3-0.7 0.4-0.1 0-0.2-0.1-0.1-0.2l1.2-0.9h-0.1c-0.1 0-0.1-0.1-0.1-0.2-1.4-0.2-2.6 0.8-3.6 1.7-0.1 0.1-0.3 0-0.4-0.1-0.1 0-0.1-0.1-0.1-0.1-0.9 0.3-1.6 0.8-2.4 1.4-0.7 0.5-1.4 1-2.2 1.3v-0.2c-0.3 0.1-0.6 0.2-0.8 0.3-0.4 0.2-0.8 0.4-1.2 0.4-0.8 0.2-1.5 0.1-2.1 0.1h-0.7c-1.4 0.2-2.7 0.4-4.1 0.7h-0.1c-0.7 0.2-1.4 0.5-2.1 0.8h-0.1l-0.2 0.2c-0.2 0.3-0.5 0.5-0.8 0.7-0.5 0.2-0.9 0.6-1.3 1l-0.5 0.5c-0.1 0-0.1 0.1-0.2 0.1-0.2 0.2-0.4 0.4-0.6 0.5-0.4 0.4-0.8 0.8-1.3 1.2-0.1 0-0.2 0.1-0.3 0l0.1-0.1c0.1-0.2 0.2-0.3 0.3-0.5s0.2-0.3 0.3-0.5c0.2-0.2 0.3-0.5 0.5-0.7v-0.1s-0.1-0.1-0.2-0.1c0.6-0.5 1.2-1 1.9-1.4-0.1 0-0.2-0.1-0.1-0.1 0-0.1 0.1-0.1 0.1-0.2l0.1-0.1v-0.1l-0.1-0.1c-0.2 0.1-0.4 0.2-0.5 0.4-0.1 0.1-0.2 0.2-0.2 0.3-0.2 0.2-0.4 0.5-0.6 0.5h-0.2-0.1l0.1-0.1v-0.1-0.1l0.1-0.1c0-0.1 0.1-0.1 0.1-0.2v-0.1l0.1-0.1v-0.1-0.1-0.1-0.1l-0.1-0.1c0.2-0.3 0.5-0.5 0.8-0.7 0.3-0.1 0.6-0.3 0.9-0.5 0.1-0.1 0.3-0.2 0.4-0.2l0.2-0.2c-0.6 0.2-1.2 0.5-1.8 0.9-0.1 0-0.1 0.1-0.2 0.1s-0.2 0-0.3-0.1v-0.1c0.1-0.1 0.2-0.2 0.4-0.3 0.1-0.1 0.2-0.1 0.3-0.2 0.1 0 0.2 0 0.2 0.1 2.2-1.7 5-2.1 7.7-2.5 1.7-0.2 3.4-0.5 4.9-1l1-0.7c0.3-0.1 0.5-0.3 0.8-0.5s0.5-0.4 0.9-0.6c0.9-0.6 1.6-1.5 1.9-2.6 0-0.1-0.1-0.2-0.1-0.2-1.4 1.5-3.1 2.8-4.9 3.7-1.7 0.9-3.5 1-5.3 1.1-0.7 0.1-1.4 0.1-2.1 0.2 0.1-0.2 0.3-0.2 0.6-0.2 0-0.3 0.1-0.4 0.3-0.5l0.1-0.1h0.3c0.1 0 0.1-0.1 0.1-0.1 0-0.1 0.1-0.1 0.1-0.1 0.2 0 0.6-0.1 0.4-0.1-0.2-0.2-0.4-0.1-0.7 0s-0.6 0.2-0.9 0c0.1-0.1 0.1-0.2 0.2-0.4 0-0.1 0.1-0.2 0.2-0.3h0.4c0-0.2 0.1-0.3 0.2-0.4 1-0.6 2-1.1 2.9-1.6 0.6-0.3 1.3-0.7 1.9-1.1-0.1 0-0.2 0.1-0.4 0.1-0.2 0.1-0.3 0.2-0.5 0 0.1 0 0.1-0.1 0.1-0.2s0-0.2 0.1-0.2c0.7-0.2 1.3-0.5 2-0.8 0.5-0.2 1-0.5 1.5-0.7-0.2 0-0.3 0-0.4 0.1-0.3 0.1-0.5 0.1-0.8-0.1 0.1 0 0.1-0.1 0.2-0.1 0.1-0.1 0.2-0.2 0.5-0.2v-0.3c0-0.1 0.1-0.1 0.2-0.1-0.1 0-0.2-0.1-0.2-0.1 0.1-0.1 0.2-0.1 0.3-0.2 0.1 0 0.3-0.1 0.4-0.2-0.1 0-0.3 0-0.3-0.1 0.3-0.4 0.9-0.6 1.5-0.7-0.1-0.1-0.2-0.1-0.3-0.1s-0.2 0-0.2-0.1 0.1-0.1 0.2-0.1h-0.2c0.2-0.2 0.2-0.4 0.2-0.5v-0.1c0.4-0.5 0.6-1.1 0.7-1.8 0.1-0.3 0.1-0.6 0.3-0.9-0.1 0-0.2 0-0.2-0.1-1.1 1.2-2.8 1.7-4.4 2.1h-0.1-0.6c-0.6 0.2-1.3 0.2-1.9-0.1-0.3-0.1-0.5-0.3-0.7-0.5-0.1-0.1-0.3-0.3-0.5-0.4-0.9-0.6-1.8-1-2.8-1.3-2.8-0.9-5.7-1.3-8.6-1.2 0.8-0.4 1.7-0.6 2.5-0.8 0.5-0.1 0.9-0.2 1.4-0.3 0.3-0.1 0.6-0.2 0.8-0.3 1.6-0.5 3.2-1 4.9-0.9-0.2-0.1-0.5 0-0.8 0h-0.4c-1.3-0.1-2.5 0.2-3.8 0.5-0.3 0.1-0.6 0.1-1 0.2-0.6 0.1-1.1 0.3-1.6 0.4-0.5 0.2-1.1 0.3-1.6 0.4-0.3 0.1-0.5 0.2-0.7 0.4-0.3 0.2-0.6 0.5-1.1 0.4v-0.3c1.1-1.3 2.5-2.7 4.3-2.8 1.7-0.3 3.3-0.1 5 0.1 0.3 0 0.6 0.1 0.9 0.1 1.4 0.2 2.9 0.4 4.3 0.8 0.3 0 0.5 0.3 0.6 0.5s0.3 0.4 0.5 0.5c0.3 0.1 0.5 0.1 0.8 0.1 0.4 0 0.8 0.1 1.2 0.3v-0.2-0.4c0.3-0.3 0.5-0.2 0.8-0.1 0.2 0.1 0.4 0.1 0.6 0 0.6-0.4 0-1-0.5-1.5-0.3-0.3-0.5-0.6-0.7-0.8 0-0.1 0.1-0.2 0.1-0.2 0.3 0.2 0.5 0.5 0.8 0.7 0.6 0.6 1.1 1.1 1.9 1.5 0.6 0.2 1.9 0.6 1.7-0.1-0.4-0.9-1.1-1.6-1.7-2.4-0.3-0.3-0.6-0.6-0.8-1v-0.4c-0.2 0-0.2-0.1-0.3-0.1 0 0 0-0.1-0.1-0.1v-0.4c-0.3-0.1-0.3-0.4-0.4-0.6 0-0.1-0.1-0.3-0.2-0.4-0.2-0.3-0.2-0.7-0.2-1.1 0-0.3 0-0.6-0.1-0.9-0.2-0.6-0.4-1.3-0.4-1.9-0.1-0.7-0.3-1.5-0.4-2.2-0.2-1.1-0.4-2.1-0.6-3.2-0.2-1.6 0.7-3 1.5-4.4 0.3-0.4 0.5-0.8 0.7-1.3 0.8-1.3 1.7-2.7 3.1-3.6 0.3-1.3 1.2-2.5 2.1-3.6s2.4-1.8 3.5-2.2c1-0.4 2-0.8 3-1.1h-76.8v59.3h54.4c1.5-1.1 3-1.7 4.7-2.6 0.8-0.4 1.6-0.7 2.5-1.2l0.6-0.3c1.6-0.9 4.2-2.1 5.1-3.1zm-17.7-8.1c0.1-0.4 0.5-0.5 0.9-0.6 0.2 0 0.3-0.1 0.5-0.2h0.1 0.1c0.2-0.1 0.5-0.3 0.7-0.2 0.1 0.2 0.3 0.2 0.4 0.3 0.1 0 0.2 0.1 0.3 0.2-0.4 0.4-0.9 0.4-1.4 0.5-0.3 0-0.7 0.1-1 0.2h-0.2c-0.3-0.1-0.5 0-0.4-0.2zm-13.1-8.3c-1 2-2.2 3.9-3.6 5.7 0 0.1 0.1 0.2 0.1 0.2 2.7-3 5.2-5.6 8.6-7.7 0.1 0 0.1 0 0 0.1s-0.2 0.2 0.1 0.2c1.2-0.3 1.7-1.3 2.2-2.2 0.1-0.2 0.3-0.5 0.4-0.7 0.5-0.8 1.3-1.4 2-1.9 0.5-0.4 1.1-0.8 1.6-1.3 0 0.1 0 0.2-0.1 0.3 0.1 0.1 0.2 0.1 0.3 0.1l0.6-0.3c0.3-0.1 0.5-0.2 0.7-0.4-0.9-0.4-2-0.4-2.9-0.1-2.4 1.1-4.4 2.9-6.3 4.9-1.1 1.2-2.3 2.3-3.7 3.1zm5.4-1c-0.1 0.2-0.2 0.4-0.4 0.4-0.1 0-0.2 0-0.2-0.1 0.1-0.5 0.4-0.9 0.9-1 0.1 0 0.1 0.1 0.1 0.2-0.1 0.1-0.1 0.2-0.2 0.2-0.1 0.2-0.1 0.2-0.2 0.3zm5.5 16.8c0.1-0.1 0-0.1-0.1-0.2l0.3-0.3c0.1-0.2-0.5-0.2-0.6-0.1l-0.2 0.2c-0.1 0.2-0.3 0.3-0.5 0.4-0.1 0.1-0.2 0.2-0.4 0.3s-0.3 0.3-0.5 0.4c-0.2 0.2 0.4 0.3 0.6 0.1l0.4-0.4h0.2c0.2 0.1 0.5-0.1 0.8-0.4zm-2-1.4-0.1 0.1c-0.4 0.3-0.8 0.5-1.1 0.8-0.4 0.2-0.7 0.4-1.1 0.5-0.1 0.1-0.3 0.1-0.4 0.2 0-0.1-0.1-0.1-0.2 0-0.4 0.2-0.8 0.5-1.1 0.9-0.1 0-0.1 0.1-0.2 0.2l-0.2 0.2c-0.1 0.1-0.2 0.2-0.2 0.3s-0.1 0.1-0.1 0.2c-0.1 0-0.3 0-0.2-0.1-0.1 0-0.1 0.1-0.2 0.1-0.2-0.2-0.2-0.2-0.3-0.2h-0.1-0.1c-0.1 0.1-0.3 0.2-0.4 0.3-0.2 0.2-0.5 0.4-0.6 0.7 0 0-0.1 0-0.1 0.1 0-0.1-0.1-0.1-0.1-0.2 0.1-0.1 0.2-0.3 0.4-0.4l0.3-0.3v-0.1c0.1-0.2 0.2-0.3 0.4-0.5 0.1-0.1 0.1-0.2 0.2-0.2 0-0.1 0.1-0.1 0.1-0.2s0.1-0.2 0.1-0.3v-0.1-0.1-0.1-0.1c0.1-0.2 0.3-0.4 0.4-0.6-0.1 0.1-0.2 0.1-0.2 0.2-0.2-0.1-0.3-0.1-0.4 0s-0.3-0.1-0.2-0.2 0.2-0.1 0.3-0.2l0.6-0.6c0.1-0.1 0.2-0.1 0.3-0.2l0.3-0.3c0.7-0.6 1.6-0.9 2.5-1.1 0.6-0.1 1.2-0.3 1.8-0.6 0.3-0.1 0.7-0.1 1 0 0.3 0 0.5 0.1 0.8 0 0.4 0 0.7 0 1 0.2-0.8 0.4-1.5 0.9-2.2 1.3-0.2 0.1-0.4 0.3-0.7 0.4zm1.9-8h0.9c-0.1 0.1-0.2 0.1-0.3 0.2-0.1 0-0.1 0-0.1 0.1 0.3 0.3 1 0.2 1.5 0 0.3-0.2 0.7-0.3 1.1-0.2 0.1 0 0.1-0.2 0.1-0.3 0.3 0.1 0.6 0.1 0.9 0.1 2.7-0.6 5.3-1.1 7.7-2.4-2.5-1.9-5.5-2.8-8.5-3.6-0.5-0.1-1-0.3-1.5-0.4 0.1 0 0.2 0 0.3 0.1 0.2 0.1 0.4 0.1 0.7-0.1-0.3-0.2-0.6-0.3-1-0.3-0.3 0-0.6-0.1-0.8-0.2h0.1c0.1 0 0.3 0 0.4-0.1-0.6-0.3-1.2-0.4-1.8-0.5-0.3 0-0.6-0.1-0.9-0.2 0.5-0.1 0.9-0.6 0.9-1.1 0-0.1-0.2-0.1-0.3-0.1-1.3 0.7-2.2 1.9-2.8 3.4 0.5 0.3 1 0.3 1.6 0.2h0.9c-0.2 0.2-0.6 0.3-1 0.4-0.1 0-0.2 0-0.4 0.1-0.3 0.1-0.7 0.3-0.6 0.6 0.1 0.1 0.2 0.1 0.3 0.2-0.3 0.1-0.5 0.2-0.7 0.4 0.3 0.2 0.6 0.2 1 0.1h0.4c0 0.1 0.1 0.2 0.2 0.2 0 0 0.1 0 0.1 0.1-0.5 0.2-0.9 0.5-1.1 1-0.1 0.3-0.4 0.6-0.6 0.8-0.2 0.1-0.3 0.3-0.5 0.5v0.3l-1.2 0.9c-0.8 0.6-1.5 1.2-2.1 2 0.1 0 0.1 0.1 0.1 0.2-0.1 0.2-0.2 0.3-0.4 0.4s-0.3 0.2-0.4 0.4c0 0.1 0 0.2 0.1 0.2 0.7-0.2 1.3-0.6 1.9-1 0.5-0.3 1.1-0.7 1.7-0.9 0.5-0.1 0.9-0.3 1.3-0.5s0.7-0.4 1.1-0.5c0.3-0.1 0.6-0.1 0.9-0.2s0.6-0.2 0.9-0.2c-0.2-0.2-0.2-0.1-0.1-0.1zm5.2 9.9v0c0.2-0.2 0.4-0.3 0.5-0.5-0.2 0.1-0.4 0.3-0.5 0.5zm21.8-7.4-0.2 0.2c0.1 0 0.2 0 0.2-0.2z" clip-rule="evenodd" fill="#000091" fill-rule="evenodd"/>
<path d="m190.9 32.6h-63.7l0.6 0.3c0.5 0.3 1.2 0.6 1.6 0.9 0.9 0.4 1.6 1 2.1 1.8 0.2 0.3 0.6 1 0.3 1.5-0.2 0.6-0.3 1.5-0.9 1.7-0.7 0.3-1.6 0.3-2.4 0.2-0.5 0-0.9-0.1-1.3-0.2 1.7 0.7 3.2 1.5 4.4 3 0.1 0.2 0.6 0.3 1 0.3 0.1 0 0.1 0.2 0.1 0.3-0.2 0.2-0.4 0.3-0.3 0.7h0.3c0.6-0.2 0.4-1.3 1.2-1 0.6 0.4 0.8 1.1 0.4 1.7-0.4 0.4-0.9 0.8-1.3 1.1-0.1 0.2-0.1 0.5 0 0.8 0.3 0.4 0.5 0.9 0.6 1.3 0.3 0.8 0.4 1.7 0.8 2.5 0.4 1.7 0.9 3.4 0.8 5 0 0.9-0.4 1.7-0.1 2.6 0.2 0.9 0.8 1.6 1.2 2.4 0.4 0.7 0.9 1.1 1.2 1.8 0.7 1.1 1.9 2.2 1.3 3.6-0.3 0.8-1.6 0.7-2.4 1.1-0.7 0.6-0.1 1.5 0.2 2 0.6 1-0.7 1.7-1.5 2 0.2 0.3 0.7 0.2 0.8 0.4 0.1 0.6 0.7 0.9 0.3 1.5-0.4 0.7-1.8 1-1.1 2 0.4 0.8 0.2 1.7-0.1 2.5-0.3 1-1.2 1.5-2 1.7-0.7 0.2-1.4 0.2-2.1 0.1-0.2-0.1-0.4-0.2-0.7-0.2-1.9-0.2-3.8-0.8-5.7-0.8-0.5 0.1-1.1 0.2-1.6 0.4-0.5 0.4-0.9 0.8-1.4 1.2-0.1 0.1-0.2 0.2-0.2 0.3s-0.1 0.1-0.1 0.2l-0.1 0.1c-0.3 0.4-0.6 0.8-0.9 1.3v0.1c0 0.1-0.1 0.1-0.1 0.2-0.4 0.7-0.6 1.3-0.8 2.1-0.8 2.6-0.4 4.8 0.1 5.3 0.1 0.1 3.7 1.2 6.2 2.3 0.9 0.4 1.8 0.8 2.6 1.3h62.6v-59.4z" fill="#E1000F"/>
<path d="m131 54.2c0.4 0.1 1.1 0.1 1.1 0.3-0.2 0.9-1.6 1.1-2.2 2h-0.3c-0.3 0.2-0.2 0.8-0.6 0.8-0.3-0.1-0.7 0-1 0.1 0.4 0.4 1 0.8 1.7 0.7 0.2 0.1 0.3 0.2 0.3 0.4 0.1 0 0.2 0 0.2-0.1 0.1 0 0.2 0 0.2 0.1v0.5c-0.3 0.4-0.9 0.2-1.3 0.3 0.8 0.2 1.7 0.2 2.6 0 0.7-0.2 0-1.3 0.4-1.9-0.2 0 0-0.3-0.2-0.3 0.2-0.2 0.4-0.6 0.7-0.7 0.3 0 0.5-0.1 0.7-0.3 0-0.2-0.4-0.3-0.3-0.6 0.7-0.4 1.2-1.1 1-1.8-0.1-0.3-1-0.3-1.6-0.6-0.6-0.2-1.2 0-1.9 0.1-0.6 0-1.1 0.3-1.7 0.4-0.8 0.3-1.5 0.6-2.1 1.1 0.8-0.3 1.6-0.5 2.5-0.7 0.5 0.2 1.1 0 1.8 0.2z" fill="#808080"/>


	<path d="M28.3,128.9h43.6v12.6H43.4v17.7h24.2v12.6H43.4v19.2h28.4v12.6H28.3V128.9z"/>
	<path d="m94.9 183.2c4.5 5.8 10.5 9.2 16.6 9.2 6 0 9.6-3.2 9.6-8.6 0-13.8-34-10.1-34-35.4 0-11.9 9.8-21.7 24.2-21.7 11.2 0 19.8 5 26.2 12.6l-11.1 10.1c-4.4-5.7-9.3-9.4-15-9.4-5.3 0-8.9 3.4-8.9 7.9 0 13.6 34 9.7 34 35.4-0.2 14.1-11.1 22.6-24.9 22.6-12.6 0-21.1-4.6-27.7-12.5l11-10.2z"/>
	<path d="m153.5 128.9h24.7c16.5 0 26.5 8.4 26.5 22.3 0 13.8-10.1 22.2-26.5 22.2h-9.5v30.3h-15.2v-74.8zm15.1 12.6v19.4h10.2c6.4 0 10.3-3.7 10.3-9.8 0-5.7-3.8-9.5-10.3-9.5h-10.2z"/>
	<path d="m218.3 128.9h43.6v12.6h-28.4v17.7h24.2v12.6h-24.2v19.2h28.4v12.6h-43.6v-74.7z"/>
	<path d="M280.6,128.9h15.2V190h28.4v13.8h-43.6V128.9z"/>
	<path d="m338.7 128.9h15.2v74.8h-15.2v-74.8z"/>

<defs>
	<filter id="a" filterUnits="userSpaceOnUse">
		<feColorMatrix values="1 0 0 0 0  0 1 0 0 0  0 0 1 0 0  0 0 0 1 0"/>
	</filter>
</defs>
<mask maskUnits="userSpaceOnUse">
	
		<rect x="-2416.4" y="155.4" width="77.5" height="53.1" fill="#C4C4C4" filter="url(#a)"/>
</mask>
















</svg>
